# xmcd CD database file
#
# Track frame offsets:
#	150
#	8319
#	17322
#	25650
#	36458
#	46201
#	58663
#	70520
#	84510
#	92134
#	103569
#	115167
#
# Disc length: 1630 seconds
#
# Revision: 1
# Processed by: cddbd v1.5.2PL0 Copyright (c) Steve Scherf et al.
# Submitted via: CDex 1.77
#
DISCID=80065c0c
DTITLE=The Florida Boys Quartet - I See JESUS
DYEAR=1900
DGENRE=Bluegrass
TTITLE0=Singing Thru Life
TTITLE1=Too Late
TTITLE2=Hide Me , Rock Of Ages
TTITLE3=What A Friend
TTITLE4=Glad Reunion Day
TTITLE5=I See Jesus
TTITLE6=Journey To The Sky
TTITLE7=Oh , How I Love Jesus
TTITLE8=I'll Fly Away
TTITLE9=Amazing Grace
TTITLE10=River Of Life
TTITLE11=Everybody Ought To Know
EXTD=
EXTT0=
EXTT1=
EXTT2=
EXTT3=
EXTT4=
EXTT5=
EXTT6=
EXTT7=
EXTT8=
EXTT9=
EXTT10=
EXTT11=
PLAYORDER=
